<svg width="19" height="19" viewBox="0 0 19 19" fill="none" xmlns="http://www.w3.org/2000/svg">
<path d="M17.6981 12.6997L13.2712 10.7188C13.0996 10.6445 12.9122 10.6142 12.7259 10.6305C12.5397 10.6469 12.3604 10.7094 12.2044 10.8125C12.1919 10.8204 12.18 10.8292 12.1687 10.8388L9.84375 12.8206C9.79201 12.8522 9.73328 12.8705 9.67277 12.8739C9.61227 12.8774 9.55185 12.8658 9.49687 12.8403C7.97437 12.1053 6.39843 10.5416 5.66343 9.03688C5.63743 8.98231 5.62536 8.92215 5.62831 8.86178C5.63125 8.80141 5.64912 8.74271 5.68031 8.69094L7.66781 6.3275C7.67718 6.31625 7.68562 6.30406 7.69406 6.29188C7.7968 6.13607 7.85916 5.95714 7.87553 5.77122C7.89189 5.58531 7.86175 5.39824 7.78781 5.22688L5.80312 0.8075C5.70731 0.583669 5.54146 0.396962 5.33049 0.275418C5.11952 0.153874 4.87482 0.104054 4.63312 0.133438C3.45334 0.288988 2.37053 0.868685 1.58693 1.76425C0.803328 2.65982 0.372529 3.81001 0.374995 5C0.374995 12.2375 6.2625 18.125 13.5 18.125C14.69 18.1275 15.8402 17.6967 16.7357 16.9131C17.6313 16.1295 18.211 15.0467 18.3666 13.8669C18.3957 13.6263 18.3464 13.3827 18.226 13.1724C18.1055 12.9621 17.9204 12.7963 17.6981 12.6997ZM17.625 13.7731C17.4926 14.7723 17.0009 15.689 16.2417 16.3519C15.4825 17.0148 14.5079 17.3785 13.5 17.375C6.67687 17.375 1.125 11.8231 1.125 5C1.1215 3.99214 1.48521 3.01751 2.14811 2.25832C2.81102 1.49914 3.72773 1.00739 4.72687 0.875C4.74186 0.874069 4.75688 0.874069 4.77187 0.875C4.84585 0.875631 4.91799 0.898131 4.97922 0.939669C5.04044 0.981207 5.08801 1.03993 5.11593 1.10844L7.095 5.52781C7.11809 5.58183 7.12817 5.64051 7.12442 5.69913C7.12068 5.75775 7.10321 5.81468 7.07343 5.86531L5.08687 8.22781C5.0775 8.24 5.06812 8.25125 5.05968 8.26438C4.95385 8.42622 4.89152 8.61262 4.87871 8.80557C4.8659 8.99852 4.90304 9.19152 4.98656 9.36594C5.80125 11.0338 7.48125 12.7016 9.16781 13.5163C9.34341 13.5992 9.53751 13.6353 9.73121 13.621C9.9249 13.6067 10.1116 13.5425 10.2731 13.4347L10.3078 13.4084L12.6356 11.4284C12.6854 11.398 12.7417 11.3799 12.7999 11.3755C12.8581 11.3711 12.9165 11.3805 12.9703 11.4031L17.3962 13.3869C17.4709 13.418 17.5336 13.4724 17.5748 13.542C17.616 13.6116 17.6336 13.6927 17.625 13.7731Z" fill="black"/>
</svg>
