<svg width="30" height="30" viewBox="0 0 30 30" fill="none" xmlns="http://www.w3.org/2000/svg">
<path d="M29.0963 27.9038L21.8709 20.6784C23.9313 18.309 24.9913 15.2321 24.8273 12.0963C24.6633 8.96061 23.2883 6.01104 20.992 3.86938C18.6957 1.72772 15.6575 0.561295 12.518 0.615975C9.37848 0.670655 6.38282 1.94217 4.16249 4.16249C1.94217 6.38282 0.670655 9.37848 0.615975 12.518C0.561295 15.6575 1.72772 18.6957 3.86938 20.992C6.01104 23.2883 8.96061 24.6633 12.0963 24.8273C15.2321 24.9913 18.309 23.9313 20.6784 21.8709L27.9038 29.0963C28.0637 29.2453 28.2753 29.3264 28.4938 29.3226C28.7124 29.3187 28.921 29.2302 29.0756 29.0756C29.2302 28.921 29.3187 28.7124 29.3226 28.4938C29.3264 28.2753 29.2453 28.0637 29.0963 27.9038ZM2.34376 12.75C2.34376 10.6918 2.95407 8.6799 4.09753 6.9686C5.24098 5.2573 6.86621 3.92351 8.76771 3.13589C10.6692 2.34826 12.7616 2.14218 14.7802 2.54371C16.7988 2.94524 18.653 3.93634 20.1083 5.39168C21.5637 6.84702 22.5548 8.70123 22.9563 10.7198C23.3578 12.7385 23.1518 14.8308 22.3641 16.7323C21.5765 18.6338 20.2427 20.259 18.5314 21.4025C16.8201 22.5459 14.8082 23.1563 12.75 23.1563C9.99113 23.1529 7.3462 22.0555 5.39538 20.1046C3.44455 18.1538 2.34711 15.5089 2.34376 12.75Z" fill="#0A1310"/>
</svg>
