<svg width="30" height="29" viewBox="0 0 30 29" fill="none" xmlns="http://www.w3.org/2000/svg">
<path d="M29.2829 26.9531C27.0596 23.1113 23.5693 20.4155 19.5137 19.2722C21.4855 18.2699 23.0622 16.6327 23.9897 14.6247C24.9171 12.6166 25.1413 10.3547 24.6259 8.20367C24.1106 6.05265 22.8858 4.13787 21.1491 2.76809C19.4124 1.3983 17.265 0.653351 15.0531 0.653351C12.8412 0.653351 10.6937 1.3983 8.95702 2.76809C7.22031 4.13787 5.99554 6.05265 5.48021 8.20367C4.96488 10.3547 5.18901 12.6166 6.11648 14.6247C7.04394 16.6327 8.62068 18.2699 10.5924 19.2722C6.53682 20.4141 3.04651 23.1098 0.823224 26.9531C0.762176 27.0492 0.721184 27.1566 0.702715 27.2688C0.684246 27.3811 0.688682 27.496 0.715755 27.6065C0.742828 27.717 0.79198 27.821 0.860252 27.912C0.928525 28.003 1.01451 28.0793 1.11303 28.1363C1.21155 28.1932 1.32057 28.2297 1.43354 28.2434C1.5465 28.2571 1.66108 28.2478 1.77036 28.2161C1.87965 28.1844 1.9814 28.1309 2.06948 28.0589C2.15757 27.9868 2.23016 27.8977 2.28291 27.7969C4.98432 23.1295 9.75713 20.3438 15.0531 20.3438C20.349 20.3438 25.1218 23.1295 27.8232 27.7969C27.876 27.8977 27.9486 27.9868 28.0367 28.0589C28.1247 28.1309 28.2265 28.1844 28.3358 28.2161C28.4451 28.2478 28.5596 28.2571 28.6726 28.2434C28.7856 28.2297 28.8946 28.1932 28.9931 28.1363C29.0916 28.0793 29.1776 28.003 29.2459 27.912C29.3142 27.821 29.3633 27.717 29.3904 27.6065C29.4175 27.496 29.4219 27.3811 29.4034 27.2688C29.385 27.1566 29.344 27.0492 29.2829 26.9531ZM6.89682 10.5C6.89682 8.88685 7.37517 7.30992 8.27139 5.96864C9.16761 4.62735 10.4414 3.58194 11.9318 2.96461C13.4222 2.34729 15.0621 2.18576 16.6443 2.50048C18.2264 2.81519 19.6797 3.59199 20.8204 4.73267C21.9611 5.87334 22.7379 7.32664 23.0526 8.9088C23.3673 10.491 23.2058 12.1309 22.5885 13.6213C21.9711 15.1116 20.9257 16.3855 19.5844 17.2817C18.2431 18.1779 16.6662 18.6563 15.0531 18.6563C12.8907 18.6537 10.8176 17.7935 9.28861 16.2645C7.75958 14.7354 6.89942 12.6624 6.89682 10.5Z" fill="#0A1310"/>
</svg>
