<svg width="17" height="17" viewBox="0 0 17 17" fill="none" xmlns="http://www.w3.org/2000/svg">
<path fill-rule="evenodd" clip-rule="evenodd" d="M8.5 1.13333C7.5326 1.13333 6.57466 1.32388 5.6809 1.69409C4.78713 2.0643 3.97504 2.60692 3.29098 3.29098C2.60692 3.97504 2.0643 4.78713 1.69409 5.6809C1.32388 6.57466 1.13333 7.5326 1.13333 8.5C1.13333 9.4674 1.32388 10.4253 1.69409 11.3191C2.0643 12.2129 2.60692 13.025 3.29098 13.709C3.97504 14.3931 4.78713 14.9357 5.6809 15.3059C6.57466 15.6761 7.5326 15.8667 8.5 15.8667C10.4538 15.8667 12.3275 15.0905 13.709 13.709C15.0905 12.3275 15.8667 10.4538 15.8667 8.5C15.8667 6.54624 15.0905 4.6725 13.709 3.29098C12.3275 1.90946 10.4538 1.13333 8.5 1.13333ZM5.24719 0.647024C6.27846 0.219859 7.38376 0 8.5 0C10.7543 3.3776e-08 12.9163 0.895533 14.5104 2.48959C16.1045 4.08365 17 6.24566 17 8.5C17 10.7543 16.1045 12.9163 14.5104 14.5104C12.9163 16.1045 10.7543 17 8.5 17C7.38376 17 6.27846 16.7801 5.24719 16.353C4.21592 15.9258 3.27889 15.2997 2.48959 14.5104C1.70029 13.7211 1.07419 12.7841 0.647024 11.7528C0.219859 10.7215 0 9.61624 0 8.5C0 7.38376 0.219859 6.27846 0.647024 5.24719C1.07419 4.21592 1.70029 3.27889 2.48959 2.48959C3.27889 1.70029 4.21592 1.07419 5.24719 0.647024ZM13.434 6.63403L7.96811 12.0999L4.17056 8.93532L4.8961 8.06467L7.89856 10.5667L12.6326 5.83264L13.434 6.63403Z" fill="#1C362B"/>
</svg>
