<svg width="15" height="14" viewBox="0 0 15 14" fill="none" xmlns="http://www.w3.org/2000/svg">
<path d="M1.5 4.75H13.5L12.8738 11.6357C12.8399 12.0084 12.6679 12.355 12.3917 12.6074C12.1154 12.8598 11.7547 12.9999 11.3805 13H3.6195C3.24528 12.9999 2.88463 12.8598 2.60835 12.6074C2.33207 12.355 2.16012 12.0084 2.12625 11.6357L1.5 4.75Z" stroke="#FBFADD" stroke-width="1.3" stroke-linejoin="round"/>
<path d="M4.5 6.25V4C4.5 3.20435 4.81607 2.44129 5.37868 1.87868C5.94129 1.31607 6.70435 1 7.5 1C8.29565 1 9.05871 1.31607 9.62132 1.87868C10.1839 2.44129 10.5 3.20435 10.5 4V6.25" stroke="#FBFADD" stroke-width="1.3" stroke-linecap="round"/>
</svg>
