<svg width="27" height="27" viewBox="0 0 27 27" fill="none" xmlns="http://www.w3.org/2000/svg">
<path d="M19.25 17H18.065L17.645 16.595C19.1658 14.831 20.0017 12.579 20 10.25C20 8.32164 19.4282 6.43657 18.3568 4.83319C17.2855 3.22982 15.7627 1.98013 13.9812 1.24218C12.1996 0.504225 10.2392 0.311142 8.34787 0.687348C6.45656 1.06355 4.71927 1.99215 3.35571 3.35571C1.99215 4.71927 1.06355 6.45656 0.687348 8.34787C0.311142 10.2392 0.504225 12.1996 1.24218 13.9812C1.98013 15.7627 3.22982 17.2855 4.83319 18.3568C6.43657 19.4282 8.32164 20 10.25 20C12.665 20 14.885 19.115 16.595 17.645L17 18.065V19.25L24.5 26.735L26.735 24.5L19.25 17ZM10.25 17C6.515 17 3.5 13.985 3.5 10.25C3.5 6.515 6.515 3.5 10.25 3.5C13.985 3.5 17 6.515 17 10.25C17 13.985 13.985 17 10.25 17ZM11 6.5H9.5V9.5H6.5V11H9.5V14H11V11H14V9.5H11V6.5Z" fill="#1C362B"/>
</svg>
